<svg width="1512" height="152" viewBox="0 0 1512 152" fill="none" xmlns="http://www.w3.org/2000/svg">
<g clip-path="url(#clip0_48_14)">
<path opacity="0.25" d="M1512 152L1512 93.3661C1451.78 65.2461 1381.48 52.6174 1312.92 57.8994C1224.27 64.7014 1141.14 100.092 1052.35 105.399C959.314 110.922 866.452 84.018 777.42 60.7367C690.14 37.9367 603.162 29.222 513.576 44.1687C468.027 51.7687 425.565 66.766 381.969 81.3326C265.243 120.333 109.62 170.101 5.81029e-06 85.5379L0 152L1512 152Z" fill="#282828"/>
<path opacity="0.5" d="M1512 152L1512 131.974C1495.62 105.235 1477.17 79.9774 1451.91 60.7367C1386.74 11.0581 1304.1 11.4001 1229.03 35.9987C1189.78 48.8554 1153.32 69.0207 1116.05 86.412C1064.49 110.479 1009.29 144.679 951.199 149.327C905.512 152.937 861.865 137.395 826.963 109.351C786.933 77.1907 748.44 30.818 696.389 16.8847C645.435 3.21739 593.888 25.3587 546.286 47.6393C498.683 69.92 451.584 97.0393 398.966 102.169C323.707 109.579 256.234 73.188 186.152 52.972C148.1 42.0026 111.813 45.1566 76.4191 62.472C48.1572 76.2659 15.939 96.5833 2.37417e-06 124.843L0 152L1512 152Z" fill="#282828"/>
<path d="M1512 152L1512 144.869C1323.09 77.2667 1116.25 61.6614 912.454 98.078C858.274 107.755 806.324 123.563 751.666 131.594C677.326 142.525 609.941 116.09 543.06 86.754C468.808 54.188 395.64 31.3627 313.488 38C204.46 46.8666 96.1884 95.8993 5.74717e-07 145.426L0 152L1512 152Z" fill="#282828"/>
</g>
<defs>
<clipPath id="clip0_48_14">
<rect width="1512" height="152" fill="white" transform="translate(1512 152) rotate(-180)"/>
</clipPath>
</defs>
</svg>
